PathFileType	4	(X/Y/Z)	0_coords_data.trc
DataRate	CameraRate	NumFrames	NumMarkers	Units	OrigDataRate	OrigDataStartFrame	OrigNumFrames
30.0	30.0	8	21	m	30.0	39	48
Frame#	Time	THUMB_TIP	THUMB_IP	THUMB_MCP	THUMB_CMC	INDEX_TIP	INDEX_DIP	INDEX_PIP	INDEX_MCP	MIDDLE_TIP	MIDDLE_DIP	MIDDLE_PIP	MIDDLE_MCP	RING_TIP	RING_DIP	RING_PIP	RING_MCP	PINKY_TIP	PINKY_DIP	PINKY_PIP	PINKY_MCP	WRIST
X1	Y1	Z1	X2	Y2	Z2	X3	Y3	Z3	X4	Y4	Z4	X5	Y5	Z5	X6	Y6	Z6	X7	Y7	Z7	X8	Y8	Z8	X9	Y9	Z9	X10	Y10	Z10	X11	Y11	Z11	X12	Y12	Z12	X13	Y13	Z13	X14	Y14	Z14	X15	Y15	Z15	X16	Y16	Z16	X17	Y17	Z17	X18	Y18	Z18	X19	Y19	Z19	X20	Y20	Z20	X21	Y21	Z21
38	1.2666666666666666	0.029976800918579103	-0.08220339965820313	0.9482139892578125	0.016637399673461915	-0.06828569793701172	0.9704210205078125	0.000315721988677978	-0.06514959716796875	1.0006799926757812	-0.010006699562072754	-0.03304980087280274	1.0160900268554687	0.0225762996673584	-0.0633119010925293	0.8930419921875	0.004285009860992431	-0.06303120040893555	0.9084860229492188	-0.014332099914550782	-0.062088699340820314	0.9268629760742187	-0.03876390075683594	-0.05779190063476562	0.961927001953125	0.029423799514770508	-0.04206710052490235	0.8794400024414063	0.01075409984588623	-0.03974499893188477	0.8964600219726563	-0.01281779956817627	-0.03713880157470703	0.9176829833984375	-0.04021260070800781	-0.032347900390625	0.9543809814453125	0.03441389846801758	-0.014442099571228027	0.8878759765625	0.013137100219726562	-0.010553299903869629	0.8973109741210937	-0.013204700469970703	-0.007892300128936767	0.9127550048828125	-0.03188279914855957	-0.009332579612731933	0.95256201171875	0.0281205997467041	0.010599100112915039	0.912698974609375	0.010276599884033203	0.01729369926452637	0.917489013671875	-0.008936530113220214	0.02070750045776367	0.9271309814453125	-0.022491899490356446	0.013616900444030761	0.9558510131835938	-0.03969839859008789	-0.007308819770812988	1.0394200439453125
39	1.3	0.029971399307250977	-0.08215149688720703	0.9478779907226562	0.01631559944152832	-0.06880619812011719	0.9703070068359375	0.00017821800708770703	-0.06563150024414062	1.000780029296875	-0.010245100021362304	-0.033704700469970705	1.01597998046875	0.02294580078125	-0.0640145034790039	0.8935399780273438	0.004491139888763427	-0.06379010009765625	0.90868798828125	-0.014436800003051758	-0.0628681983947754	0.9270020141601563	-0.03904769897460938	-0.05853459930419922	0.9618779907226562	0.02990130043029785	-0.04309239959716797	0.8800609741210937	0.010970399856567383	-0.04077349853515625	0.896760009765625	-0.012803500175476074	-0.03802360153198242	0.9177630004882813	-0.04040169906616211	-0.03314910125732422	0.954322021484375	0.03463050079345703	-0.015561300277709961	0.8886610107421875	0.0131943998336792	-0.011515600204467773	0.897593017578125	-0.013394300460815429	-0.008712030410766602	0.9126019897460937	-0.03198080062866211	-0.010187000274658202	0.9525999755859375	0.028355600357055664	0.009142069816589356	0.9131669921875	0.010458800315856933	0.01602149963378906	0.9176190185546875	-0.008905759811401367	0.019653099060058594	0.9268209838867187	-0.02274169921875	0.01284630012512207	0.955635009765625	-0.03974290084838867	-0.007928199768066406	1.0391600341796876
40	1.3333333333333333	0.029858699798583986	-0.0826146011352539	0.9480380249023438	0.01593529987335205	-0.06957140350341796	0.9706580200195313	-0.000465139001607894	-0.06668599700927734	1.0008400268554687	-0.010670000076293946	-0.034720199584960934	1.0156199951171876	0.022527700424194337	-0.06545860290527344	0.8934929809570312	0.0041181001663208	-0.06514800262451172	0.90856298828125	-0.014892399787902832	-0.06401679992675781	0.9267550048828125	-0.039442100524902345	-0.05931340026855469	0.9615770263671874	0.029552600860595704	-0.04461700057983398	0.879822998046875	0.010631600379943847	-0.042089900970458984	0.89643701171875	-0.013157500267028808	-0.039141799926757814	0.9173159790039063	-0.04071179962158203	-0.033902000427246094	0.9539459838867187	0.03419979858398438	-0.01696820068359375	0.8886900024414063	0.012716899871826172	-0.012686100006103516	0.8972169799804688	-0.013940299987792969	-0.009676580429077148	0.9119970092773437	-0.03236289978027344	-0.011038900375366211	0.9520780029296875	0.02805660057067871	0.0076317300796508785	0.9130900268554687	0.010152600288391113	0.014859199523925781	0.917239013671875	-0.009089889526367188	0.018600799560546874	0.9261420288085938	-0.022997100830078124	0.011932000160217286	0.9549359741210938	-0.040007099151611325	-0.008543780326843262	1.0387900390625
41	1.3666666666666667	0.02962280082702637	-0.083279296875	0.9477260131835937	0.015484299659729004	-0.07063790130615234	0.9705570068359375	-0.00099845802783966	-0.06771430206298829	1.00077001953125	-0.011248299598693848	-0.0354817008972168	1.0157100219726563	0.022374399185180666	-0.0669760971069336	0.8934010009765625	0.003775979995727539	-0.06641390228271485	0.9084530029296874	-0.015305100440979004	-0.06519229888916016	0.9264719848632812	-0.03995240020751953	-0.060189998626708985	0.9613939819335937	0.029466800689697266	-0.04615010070800781	0.8799030151367188	0.010528900146484376	-0.04345130157470703	0.8962329711914062	-0.01339680004119873	-0.04034500122070313	0.9170070190429688	-0.04112300109863281	-0.0347515983581543	0.9538670043945312	0.03399240112304688	-0.01847979927062988	0.8886119995117188	0.012522199630737304	-0.01408839988708496	0.897052001953125	-0.014268500328063965	-0.010935099601745605	0.9115349731445312	-0.03250699996948242	-0.012037199974060058	0.9518920288085938	0.027952100753784178	0.006059609889984131	0.912781005859375	0.010122300148010254	0.013302900314331055	0.9169569702148438	-0.009209890365600586	0.017272600173950194	0.9255919799804687	-0.02321500015258789	0.010882800102233886	0.9546279907226562	-0.040277301788330076	-0.00914208984375	1.038510009765625
42	1.4	0.02958169937133789	-0.08372799682617188	0.9473389892578125	0.015313799858093263	-0.0713488998413086	0.9701640014648437	-0.001170629978179931	-0.06863320159912109	1.0002899780273438	-0.011323800086975097	-0.03641260147094726	1.0152999877929687	0.022357500076293946	-0.06781770324707032	0.893291015625	0.003767189979553222	-0.06726670074462891	0.9083560180664062	-0.015387299537658692	-0.06606559753417969	0.9263090209960938	-0.040071800231933595	-0.06096699905395508	0.96122802734375	0.02944860076904297	-0.047062999725341795	0.879822021484375	0.010391400337219239	-0.0443927001953125	0.8960709838867188	-0.013645999908447266	-0.04127360153198242	0.916801025390625	-0.04126060104370117	-0.035765201568603515	0.9533629760742187	0.03402000045776367	-0.019540599822998047	0.8885900268554687	0.012465999603271485	-0.015127699851989746	0.8967630004882813	-0.014343899726867676	-0.011924099922180176	0.9111539916992187	-0.03268679809570312	-0.012863800048828125	0.9514219970703125	0.02805340003967285	0.004746129989624023	0.9126890258789062	0.010224699974060059	0.011984299659729004	0.9165349731445313	-0.009217399597167969	0.016074499130249022	0.9251710205078125	-0.02362540054321289	0.01006659984588623	0.9543619995117187	-0.04042010116577149	-0.009905349731445313	1.0378599853515624
43	1.4333333333333333	0.02969179916381836	-0.084	0.9471939697265624	0.015181599617004394	-0.07175229644775391	0.9701630249023437	-0.001257889986038208	-0.06914109802246093	1.00025	-0.01140149974822998	-0.03700899887084961	1.01527001953125	0.022362699508666994	-0.06851719665527344	0.89327197265625	0.003743550062179565	-0.06798519897460938	0.9082329711914062	-0.01544789981842041	-0.06675679779052734	0.926073974609375	-0.040167701721191405	-0.06172029876708984	0.9608679809570313	0.029266399383544923	-0.04786869812011719	0.8794710083007813	0.010265800476074219	-0.04509759902954102	0.895822998046875	-0.013681799888610839	-0.0420010986328125	0.9164140014648438	-0.04149100112915039	-0.036362998962402346	0.9532589721679687	0.03384920120239258	-0.020280000686645507	0.8882930297851562	0.012367799758911132	-0.01589620018005371	0.8966409912109375	-0.014383700370788574	-0.01274370002746582	0.9109639892578125	-0.03304570007324219	-0.013512399673461914	0.9514940185546875	0.028096200942993164	0.0037338399887084962	0.9128049926757813	0.01024429988861084	0.01107040023803711	0.9162979736328125	-0.009167880058288573	0.015201600074768066	0.9248319702148438	-0.023758899688720702	0.009438409805297851	0.9543359985351563	-0.04064450073242187	-0.010477399826049805	1.0378900146484376
44	1.4666666666666666	0.029516700744628907	-0.08436160278320312	0.9472000122070312	0.015030400276184082	-0.07231210327148438	0.9700130004882812	-0.001459409952163696	-0.06958100128173828	1.0002000122070311	-0.011636699676513672	-0.03745190048217773	1.0150800170898437	0.022340099334716798	-0.06924649810791016	0.8932890014648438	0.003621920108795166	-0.06876930236816406	0.9080369873046875	-0.015717399597167968	-0.0674052963256836	0.9260919799804688	-0.04038980102539062	-0.06227140045166016	0.9608319702148438	0.029156900405883788	-0.048724998474121095	0.8795120239257812	0.010094200134277344	-0.045887298583984375	0.8957899780273437	-0.013867600440979004	-0.042653900146484375	0.9164539794921875	-0.041687301635742184	-0.03698609924316406	0.9531309814453125	0.0338042984008789	-0.021173799514770508	0.8881829833984375	0.012303299903869629	-0.016684499740600586	0.89647900390625	-0.014599800109863281	-0.013417499542236328	0.9108989868164062	-0.033175098419189454	-0.01413350009918213	0.9514190063476563	0.02808559989929199	0.00291346001625061	0.9128099975585937	0.010215299606323242	0.010277400016784668	0.9162009887695313	-0.009269339561462402	0.014437299728393554	0.9247969970703125	-0.02394960021972656	0.008854100227355957	0.9541500244140625	-0.04074160003662109	-0.010867600440979003	1.037760009765625
45	1.5	0.02936240005493164	-0.08445480346679687	0.9468839721679687	0.014847700119018554	-0.07226270294189453	0.9701829833984374	-0.0015840599536895753	-0.0699032974243164	1.0001500244140624	-0.011651300430297851	-0.03777899932861328	1.015030029296875	0.022274599075317383	-0.06951509857177735	0.8934619750976562	0.003448139905929565	-0.0689791030883789	0.9082730102539063	-0.01578820037841797	-0.06765059661865234	0.9261519775390625	-0.040652599334716794	-0.0625093994140625	0.9607680053710937	0.02919099998474121	-0.049016300201416015	0.8797670288085937	0.010025600433349609	-0.046162799835205076	0.8959500122070313	-0.014035300254821777	-0.04298580169677734	0.9163250122070312	-0.04174399948120117	-0.037225601196289065	0.9528590087890625	0.033709201812744144	-0.021493200302124024	0.8884030151367187	0.01220460033416748	-0.017003900527954103	0.8965150146484375	-0.014647000312805176	-0.013707599639892577	0.9108629760742187	-0.03333879852294922	-0.014421500205993653	0.9511420288085938	0.02789019966125488	0.0024746599197387692	0.9129400024414063	0.010067500114440919	0.009942270278930665	0.916177978515625	-0.009385780334472656	0.01425920009613037	0.9245850219726562	-0.02411039924621582	0.00854345989227295	0.9539320068359375	-0.04072900009155273	-0.011033599853515624	1.0378800048828125
